<ttFont>
<head>
    <!-- Most of this table will be recalculated by the compiler -->
    <tableVersion value="1.0"/>
    <fontRevision value="0.0"/>
    <checkSumAdjustment value="0x44db7f21"/>
    <magicNumber value="0x5f0f3cf5"/>
    <flags value="00000000 00000011"/>
    <unitsPerEm value="1024"/>
    <created value="Thu Feb  4 04:40:50 2021"/>
    <modified value="Thu Feb  4 04:40:50 2021"/>
    <xMin value="-5"/>
    <yMin value="-7"/>
    <xMax value="1024"/>
    <yMax value="1040"/>
    <macStyle value="00000000 00000000"/>
    <lowestRecPPEM value="6"/>
    <fontDirectionHint value="2"/>
    <indexToLocFormat value="0"/>
    <glyphDataFormat value="0"/>
  </head>
    <TTGlyph name="glyph00123" xMin="328" yMin="764" xMax="728" yMax="889">
      <contour>
        <pt x="728" y="828" on="1"/>
        <pt x="712" y="846" on="0"/>
        <pt x="676" y="872" on="0"/>
        <pt x="655" y="878" on="1"/>
        <pt x="643" y="881" on="0"/>
        <pt x="632" y="889" on="1"/>
        <pt x="583" y="880" on="0"/>
        <pt x="482" y="859" on="0"/>
        <pt x="431" y="850" on="1"/>
        <pt x="408" y="846" on="0"/>
        <pt x="385" y="844" on="1"/>
        <pt x="372" y="836" on="0"/>
        <pt x="350" y="815" on="0"/>
        <pt x="343" y="800" on="1"/>
        <pt x="338" y="792" on="0"/>
        <pt x="331" y="774" on="0"/>
        <pt x="328" y="765" on="1"/>
        <pt x="352" y="764" on="0"/>
        <pt x="403" y="767" on="0"/>
        <pt x="431" y="772" on="1"/>
        <pt x="508" y="785" on="0"/>
        <pt x="661" y="817" on="0"/>
      </contour>
    </TTGlyph>
    <TTGlyph name="glyph00124" xMin="302" yMin="678" xMax="778" yMax="828">
      <contour>
        <pt x="778" y="750" on="1"/>
        <pt x="767" y="773" on="0"/>
        <pt x="742" y="812" on="0"/>
        <pt x="728" y="828" on="1"/>
        <pt x="661" y="817" on="0"/>
        <pt x="508" y="785" on="0"/>
        <pt x="431" y="772" on="1"/>
        <pt x="403" y="767" on="0"/>
        <pt x="351" y="764" on="0"/>
        <pt x="328" y="765" on="1"/>
        <pt x="325" y="755" on="0"/>
        <pt x="320" y="735" on="0"/>
        <pt x="317" y="725" on="1"/>
        <pt x="302" y="682" on="1"/>
        <pt x="330" y="678" on="0"/>
        <pt x="395" y="680" on="0"/>
        <pt x="431" y="686" on="1"/>
        <pt x="523" y="703" on="0"/>
        <pt x="703" y="740" on="0"/>
      </contour>
    </TTGlyph>
    <TTGlyph name="glyph00125" xMin="273" yMin="600" xMax="813" yMax="750">
      <contour>
        <pt x="813" y="676" on="1"/>
        <pt x="805" y="684" on="0"/>
        <pt x="801" y="694" on="1"/>
        <pt x="790" y="724" on="0"/>
        <pt x="778" y="750" on="1"/>
        <pt x="703" y="740" on="0"/>
        <pt x="523" y="703" on="0"/>
        <pt x="431" y="686" on="1"/>
        <pt x="395" y="680" on="0"/>
        <pt x="330" y="678" on="0"/>
        <pt x="302" y="682" on="1"/>
        <pt x="286" y="634" on="1"/>
        <pt x="285" y="628" on="0"/>
        <pt x="278" y="614" on="0"/>
        <pt x="273" y="608" on="1"/>
        <pt x="306" y="601" on="0"/>
        <pt x="385" y="600" on="0"/>
        <pt x="431" y="608" on="1"/>
        <pt x="534" y="626" on="0"/>
        <pt x="734" y="668" on="0"/>
      </contour>
    </TTGlyph>
    <TTGlyph name="glyph00126" xMin="173" yMin="507" xMax="865" yMax="676">
      <contour>
        <pt x="857" y="636" on="1"/>
        <pt x="845" y="655" on="0"/>
        <pt x="827" y="663" on="1"/>
        <pt x="831" y="664" on="0"/>
        <pt x="832" y="664" on="1"/>
        <pt x="832" y="664" on="1"/>
        <pt x="821" y="668" on="0"/>
        <pt x="813" y="676" on="1"/>
        <pt x="734" y="668" on="0"/>
        <pt x="534" y="626" on="0"/>
        <pt x="431" y="608" on="1"/>
        <pt x="385" y="600" on="0"/>
        <pt x="306" y="601" on="0"/>
        <pt x="273" y="608" on="1"/>
        <pt x="269" y="602" on="0"/>
        <pt x="258" y="594" on="0"/>
        <pt x="253" y="596" on="1"/>
        <pt x="252" y="596" on="0"/>
        <pt x="251" y="597" on="1"/>
        <pt x="251" y="597" on="0"/>
        <pt x="251" y="597" on="0"/>
        <pt x="251" y="597" on="1"/>
        <pt x="226" y="606" on="0"/>
        <pt x="182" y="584" on="0"/>
        <pt x="173" y="563" on="1"/>
        <pt x="213" y="538" on="0"/>
        <pt x="341" y="507" on="0"/>
        <pt x="431" y="523" on="1"/>
        <pt x="512" y="537" on="0"/>
        <pt x="670" y="569" on="0"/>
        <pt x="811" y="593" on="0"/>
        <pt x="864" y="595" on="1"/>
        <pt x="865" y="606" on="0"/>
        <pt x="862" y="627" on="0"/>
      </contour>
    </TTGlyph>
    <TTGlyph name="glyph00127" xMin="862" yMin="590" xMax="935" yMax="670">
      <contour>
        <pt x="933" y="590" on="1"/>
        <pt x="935" y="602" on="0"/>
        <pt x="933" y="626" on="0"/>
        <pt x="926" y="636" on="1"/>
        <pt x="916" y="653" on="0"/>
        <pt x="882" y="670" on="0"/>
        <pt x="862" y="665" on="1"/>
        <pt x="884" y="659" on="0"/>
        <pt x="898" y="636" on="1"/>
        <pt x="903" y="626" on="0"/>
        <pt x="906" y="605" on="0"/>
        <pt x="905" y="594" on="1"/>
        <pt x="921" y="593" on="0"/>
      </contour>
    </TTGlyph>
    <TTGlyph name="glyph00128" xMin="165" yMin="430" xMax="864" yMax="595">
      <contour>
        <pt x="431" y="523" on="1"/>
        <pt x="341" y="507" on="0"/>
        <pt x="213" y="538" on="0"/>
        <pt x="173" y="563" on="1"/>
        <pt x="165" y="545" on="0"/>
        <pt x="170" y="526" on="1"/>
        <pt x="173" y="513" on="0"/>
        <pt x="184" y="489" on="0"/>
        <pt x="193" y="473" on="1"/>
        <pt x="233" y="452" on="0"/>
        <pt x="351" y="430" on="0"/>
        <pt x="431" y="444" on="1"/>
        <pt x="433" y="444" on="0"/>
        <pt x="437" y="445" on="0"/>
        <pt x="439" y="446" on="1"/>
        <pt x="444" y="446" on="0"/>
        <pt x="454" y="448" on="0"/>
        <pt x="459" y="449" on="1"/>
        <pt x="468" y="451" on="0"/>
        <pt x="485" y="454" on="0"/>
        <pt x="494" y="456" on="1"/>
        <pt x="497" y="456" on="0"/>
        <pt x="504" y="458" on="0"/>
        <pt x="508" y="458" on="1"/>
        <pt x="510" y="459" on="0"/>
        <pt x="515" y="460" on="0"/>
        <pt x="518" y="460" on="1"/>
        <pt x="522" y="461" on="0"/>
        <pt x="529" y="463" on="0"/>
        <pt x="533" y="463" on="1"/>
        <pt x="536" y="464" on="0"/>
        <pt x="540" y="465" on="0"/>
        <pt x="542" y="465" on="1"/>
        <pt x="549" y="467" on="0"/>
        <pt x="563" y="469" on="0"/>
        <pt x="570" y="471" on="1"/>
        <pt x="570" y="471" on="0"/>
        <pt x="572" y="471" on="0"/>
        <pt x="572" y="471" on="1"/>
        <pt x="574" y="472" on="0"/>
        <pt x="578" y="472" on="0"/>
        <pt x="580" y="473" on="1"/>
        <pt x="581" y="473" on="0"/>
        <pt x="582" y="473" on="0"/>
        <pt x="583" y="473" on="1"/>
        <pt x="586" y="474" on="0"/>
        <pt x="592" y="475" on="0"/>
        <pt x="595" y="476" on="1"/>
        <pt x="596" y="476" on="0"/>
        <pt x="596" y="476" on="0"/>
        <pt x="597" y="476" on="1"/>
        <pt x="600" y="477" on="0"/>
        <pt x="607" y="478" on="0"/>
        <pt x="610" y="479" on="1"/>
        <pt x="610" y="479" on="0"/>
        <pt x="611" y="479" on="0"/>
        <pt x="611" y="479" on="1"/>
        <pt x="614" y="479" on="0"/>
        <pt x="620" y="481" on="0"/>
        <pt x="624" y="481" on="1"/>
        <pt x="624" y="481" on="0"/>
        <pt x="625" y="482" on="0"/>
        <pt x="626" y="482" on="1"/>
        <pt x="633" y="483" on="0"/>
        <pt x="637" y="484" on="1"/>
        <pt x="638" y="484" on="0"/>
        <pt x="642" y="485" on="0"/>
        <pt x="643" y="485" on="1"/>
        <pt x="646" y="486" on="0"/>
        <pt x="652" y="487" on="0"/>
        <pt x="655" y="487" on="1"/>
        <pt x="656" y="488" on="0"/>
        <pt x="656" y="488" on="0"/>
        <pt x="656" y="488" on="1"/>
        <pt x="660" y="488" on="0"/>
        <pt x="666" y="489" on="0"/>
        <pt x="669" y="490" on="1"/>
        <pt x="671" y="490" on="0"/>
        <pt x="675" y="491" on="0"/>
        <pt x="677" y="492" on="1"/>
        <pt x="679" y="492" on="0"/>
        <pt x="683" y="493" on="0"/>
        <pt x="685" y="493" on="1"/>
        <pt x="687" y="493" on="0"/>
        <pt x="692" y="494" on="1"/>
        <pt x="702" y="496" on="0"/>
        <pt x="722" y="500" on="0"/>
        <pt x="732" y="501" on="1"/>
        <pt x="736" y="502" on="0"/>
        <pt x="737" y="502" on="1"/>
        <pt x="739" y="502" on="0"/>
        <pt x="741" y="503" on="1"/>
        <pt x="760" y="506" on="0"/>
        <pt x="795" y="511" on="0"/>
        <pt x="812" y="513" on="1"/>
        <pt x="814" y="513" on="0"/>
        <pt x="817" y="513" on="1"/>
        <pt x="828" y="514" on="0"/>
        <pt x="838" y="515" on="1"/>
        <pt x="844" y="527" on="0"/>
        <pt x="855" y="551" on="0"/>
        <pt x="858" y="563" on="1"/>
        <pt x="860" y="570" on="0"/>
        <pt x="864" y="587" on="0"/>
        <pt x="864" y="595" on="1"/>
        <pt x="811" y="593" on="0"/>
        <pt x="670" y="569" on="0"/>
        <pt x="512" y="537" on="0"/>
      </contour>
    </TTGlyph>
    <TTGlyph name="glyph00129" xMin="871" yMin="516" xMax="880" yMax="517">
      <contour>
        <pt x="880" y="517" on="1"/>
        <pt x="877" y="517" on="0"/>
        <pt x="871" y="516" on="1"/>
        <pt x="874" y="517" on="0"/>
      </contour>
    </TTGlyph>
    <TTGlyph name="glyph00130" xMin="879" yMin="515" xMax="933" yMax="594">
      <contour>
        <pt x="933" y="590" on="1"/>
        <pt x="920" y="593" on="0"/>
        <pt x="905" y="594" on="1"/>
        <pt x="904" y="586" on="0"/>
        <pt x="901" y="570" on="0"/>
        <pt x="899" y="563" on="1"/>
        <pt x="895" y="551" on="0"/>
        <pt x="885" y="528" on="0"/>
        <pt x="879" y="517" on="1"/>
        <pt x="880" y="517" on="0"/>
        <pt x="882" y="517" on="0"/>
        <pt x="883" y="517" on="1"/>
        <pt x="884" y="517" on="0"/>
        <pt x="885" y="517" on="0"/>
        <pt x="886" y="517" on="1"/>
        <pt x="887" y="517" on="0"/>
        <pt x="888" y="516" on="0"/>
        <pt x="889" y="516" on="1"/>
        <pt x="892" y="516" on="0"/>
        <pt x="893" y="516" on="1"/>
        <pt x="894" y="516" on="0"/>
        <pt x="896" y="516" on="0"/>
        <pt x="897" y="516" on="1"/>
        <pt x="898" y="516" on="0"/>
        <pt x="901" y="516" on="1"/>
        <pt x="903" y="516" on="0"/>
        <pt x="904" y="516" on="1"/>
        <pt x="905" y="516" on="0"/>
        <pt x="907" y="515" on="0"/>
        <pt x="908" y="515" on="1"/>
        <pt x="914" y="527" on="0"/>
        <pt x="924" y="551" on="0"/>
        <pt x="928" y="563" on="1"/>
        <pt x="929" y="569" on="0"/>
        <pt x="932" y="583" on="0"/>
      </contour>
    </TTGlyph>
    <TTGlyph name="glyph00131" xMin="193" yMin="348" xMax="838" yMax="515">
      <contour>
        <pt x="792" y="444" on="1"/>
        <pt x="799" y="452" on="0"/>
        <pt x="825" y="491" on="0"/>
        <pt x="838" y="515" on="1"/>
        <pt x="828" y="514" on="0"/>
        <pt x="817" y="513" on="1"/>
        <pt x="815" y="513" on="0"/>
        <pt x="812" y="513" on="1"/>
        <pt x="795" y="511" on="0"/>
        <pt x="760" y="506" on="0"/>
        <pt x="741" y="503" on="1"/>
        <pt x="740" y="503" on="0"/>
        <pt x="737" y="502" on="1"/>
        <pt x="736" y="502" on="0"/>
        <pt x="733" y="502" on="0"/>
        <pt x="732" y="501" on="1"/>
        <pt x="722" y="500" on="0"/>
        <pt x="702" y="496" on="0"/>
        <pt x="692" y="494" on="1"/>
        <pt x="690" y="494" on="0"/>
        <pt x="686" y="493" on="0"/>
        <pt x="685" y="493" on="1"/>
        <pt x="683" y="493" on="0"/>
        <pt x="679" y="492" on="0"/>
        <pt x="677" y="492" on="1"/>
        <pt x="672" y="491" on="0"/>
        <pt x="669" y="490" on="1"/>
        <pt x="666" y="490" on="0"/>
        <pt x="660" y="488" on="0"/>
        <pt x="656" y="488" on="1"/>
        <pt x="656" y="488" on="0"/>
        <pt x="656" y="488" on="0"/>
        <pt x="655" y="488" on="1"/>
        <pt x="652" y="487" on="0"/>
        <pt x="646" y="486" on="0"/>
        <pt x="643" y="485" on="1"/>
        <pt x="639" y="484" on="0"/>
        <pt x="637" y="484" on="1"/>
        <pt x="634" y="483" on="0"/>
        <pt x="628" y="482" on="0"/>
        <pt x="626" y="482" on="1"/>
        <pt x="625" y="482" on="0"/>
        <pt x="624" y="481" on="0"/>
        <pt x="623" y="481" on="1"/>
        <pt x="620" y="481" on="0"/>
        <pt x="614" y="479" on="0"/>
        <pt x="611" y="479" on="1"/>
        <pt x="610" y="479" on="0"/>
        <pt x="610" y="479" on="1"/>
        <pt x="607" y="478" on="0"/>
        <pt x="600" y="477" on="0"/>
        <pt x="597" y="476" on="1"/>
        <pt x="596" y="476" on="0"/>
        <pt x="596" y="476" on="0"/>
        <pt x="595" y="476" on="1"/>
        <pt x="592" y="475" on="0"/>
        <pt x="586" y="474" on="0"/>
        <pt x="583" y="473" on="1"/>
        <pt x="582" y="473" on="0"/>
        <pt x="581" y="473" on="0"/>
        <pt x="580" y="473" on="1"/>
        <pt x="572" y="471" on="1"/>
        <pt x="572" y="471" on="0"/>
        <pt x="570" y="471" on="0"/>
        <pt x="569" y="471" on="1"/>
        <pt x="568" y="470" on="0"/>
        <pt x="564" y="470" on="0"/>
        <pt x="563" y="469" on="1"/>
        <pt x="557" y="468" on="0"/>
        <pt x="547" y="466" on="0"/>
        <pt x="542" y="465" on="1"/>
        <pt x="540" y="465" on="0"/>
        <pt x="536" y="464" on="0"/>
        <pt x="533" y="464" on="1"/>
        <pt x="518" y="460" on="1"/>
        <pt x="515" y="460" on="0"/>
        <pt x="510" y="459" on="0"/>
        <pt x="507" y="459" on="1"/>
        <pt x="504" y="458" on="0"/>
        <pt x="497" y="457" on="0"/>
        <pt x="494" y="456" on="1"/>
        <pt x="485" y="454" on="0"/>
        <pt x="468" y="451" on="0"/>
        <pt x="459" y="449" on="1"/>
        <pt x="454" y="448" on="0"/>
        <pt x="444" y="447" on="0"/>
        <pt x="439" y="446" on="1"/>
        <pt x="437" y="445" on="0"/>
        <pt x="433" y="445" on="0"/>
        <pt x="431" y="444" on="1"/>
        <pt x="351" y="430" on="0"/>
        <pt x="233" y="452" on="0"/>
        <pt x="193" y="473" on="1"/>
        <pt x="200" y="461" on="0"/>
        <pt x="218" y="431" on="0"/>
        <pt x="230" y="411" on="1"/>
        <pt x="237" y="400" on="0"/>
        <pt x="233" y="388" on="1"/>
        <pt x="232" y="385" on="0"/>
        <pt x="230" y="377" on="0"/>
        <pt x="229" y="372" on="1"/>
        <pt x="267" y="358" on="0"/>
        <pt x="368" y="348" on="0"/>
        <pt x="431" y="359" on="1"/>
        <pt x="527" y="376" on="0"/>
        <pt x="714" y="415" on="0"/>
        <pt x="790" y="425" on="1"/>
        <pt x="790" y="427" on="0"/>
        <pt x="789" y="433" on="1"/>
        <pt x="788" y="439" on="0"/>
      </contour>
    </TTGlyph>
    <TTGlyph name="glyph00132" xMin="871" yMin="517" xMax="880" yMax="517">
      <contour>
        <pt x="871" y="517" on="1"/>
        <pt x="873" y="517" on="0"/>
        <pt x="877" y="517" on="0"/>
        <pt x="880" y="517" on="1"/>
        <pt x="874" y="517" on="0"/>
      </contour>
    </TTGlyph>
    <TTGlyph name="glyph00133" xMin="829" yMin="429" xMax="908" yMax="517">
      <contour>
        <pt x="862" y="445" on="1"/>
        <pt x="868" y="453" on="0"/>
        <pt x="895" y="491" on="0"/>
        <pt x="908" y="515" on="1"/>
        <pt x="907" y="515" on="0"/>
        <pt x="905" y="516" on="0"/>
        <pt x="904" y="516" on="1"/>
        <pt x="903" y="516" on="0"/>
        <pt x="902" y="516" on="0"/>
        <pt x="901" y="516" on="1"/>
        <pt x="900" y="516" on="0"/>
        <pt x="898" y="516" on="0"/>
        <pt x="897" y="516" on="1"/>
        <pt x="895" y="516" on="0"/>
        <pt x="894" y="516" on="1"/>
        <pt x="893" y="516" on="0"/>
        <pt x="891" y="516" on="0"/>
        <pt x="890" y="516" on="1"/>
        <pt x="888" y="517" on="0"/>
        <pt x="886" y="517" on="1"/>
        <pt x="883" y="517" on="1"/>
        <pt x="880" y="517" on="1"/>
        <pt x="867" y="492" on="0"/>
        <pt x="840" y="453" on="0"/>
        <pt x="833" y="444" on="1"/>
        <pt x="829" y="439" on="0"/>
        <pt x="830" y="433" on="1"/>
        <pt x="830" y="430" on="0"/>
        <pt x="831" y="429" on="1"/>
        <pt x="846" y="430" on="0"/>
        <pt x="859" y="431" on="1"/>
        <pt x="859" y="432" on="0"/>
        <pt x="859" y="433" on="0"/>
        <pt x="859" y="433" on="1"/>
        <pt x="858" y="439" on="0"/>
      </contour>
    </TTGlyph>
    <TTGlyph name="glyph00134" xMin="210" yMin="87" xMax="872" yMax="431">
      <contour>
        <pt x="872" y="303" on="1"/>
        <pt x="872" y="283" on="0"/>
        <pt x="872" y="268" on="1"/>
        <pt x="871" y="247" on="0"/>
        <pt x="864" y="207" on="0"/>
        <pt x="855" y="189" on="1"/>
        <pt x="855" y="188" on="0"/>
        <pt x="854" y="186" on="0"/>
        <pt x="854" y="186" on="1"/>
        <pt x="842" y="161" on="0"/>
        <pt x="802" y="114" on="0"/>
        <pt x="776" y="106" on="1"/>
        <pt x="739" y="95" on="0"/>
        <pt x="691" y="92" on="0"/>
        <pt x="645" y="99" on="0"/>
        <pt x="581" y="107" on="0"/>
        <pt x="527" y="107" on="1"/>
        <pt x="466" y="107" on="0"/>
        <pt x="386" y="98" on="0"/>
        <pt x="362" y="93" on="1"/>
        <pt x="332" y="87" on="0"/>
        <pt x="276" y="103" on="0"/>
        <pt x="255" y="122" on="1"/>
        <pt x="229" y="145" on="0"/>
        <pt x="219" y="179" on="1"/>
        <pt x="215" y="196" on="0"/>
        <pt x="213" y="215" on="1"/>
        <pt x="210" y="236" on="0"/>
        <pt x="212" y="279" on="0"/>
        <pt x="214" y="299" on="1"/>
        <pt x="217" y="321" on="0"/>
        <pt x="225" y="359" on="0"/>
        <pt x="229" y="372" on="1"/>
        <pt x="267" y="358" on="0"/>
        <pt x="368" y="348" on="0"/>
        <pt x="431" y="359" on="1"/>
        <pt x="510" y="373" on="0"/>
        <pt x="666" y="405" on="0"/>
        <pt x="806" y="429" on="0"/>
        <pt x="859" y="431" on="1"/>
        <pt x="862" y="411" on="0"/>
        <pt x="867" y="372" on="0"/>
        <pt x="868" y="353" on="1"/>
        <pt x="870" y="340" on="0"/>
        <pt x="871" y="315" on="0"/>
      </contour>
    </TTGlyph>
    <TTGlyph name="glyph00135" xMin="385" yMin="844" xMax="632" yMax="956">
      <contour>
        <pt x="632" y="889" on="1"/>
        <pt x="612" y="902" on="0"/>
        <pt x="582" y="936" on="0"/>
        <pt x="550" y="956" on="0"/>
        <pt x="529" y="949" on="1"/>
        <pt x="515" y="944" on="0"/>
        <pt x="500" y="930" on="1"/>
        <pt x="460" y="895" on="0"/>
        <pt x="416" y="865" on="1"/>
        <pt x="408" y="859" on="0"/>
        <pt x="393" y="849" on="0"/>
        <pt x="385" y="844" on="1"/>
        <pt x="408" y="846" on="0"/>
        <pt x="431" y="850" on="1"/>
        <pt x="482" y="859" on="0"/>
        <pt x="583" y="880" on="0"/>
      </contour>
    </TTGlyph>
    <TTGlyph name="glyph00136" xMin="827" yMin="594" xMax="906" yMax="665">
      <contour>
        <pt x="905" y="594" on="1"/>
        <pt x="906" y="605" on="0"/>
        <pt x="903" y="626" on="0"/>
        <pt x="898" y="636" on="1"/>
        <pt x="884" y="659" on="0"/>
        <pt x="862" y="665" on="1"/>
        <pt x="862" y="665" on="0"/>
        <pt x="861" y="665" on="0"/>
        <pt x="861" y="665" on="1"/>
        <pt x="861" y="664" on="0"/>
        <pt x="861" y="664" on="0"/>
        <pt x="860" y="664" on="1"/>
        <pt x="846" y="660" on="0"/>
        <pt x="832" y="664" on="1"/>
        <pt x="832" y="664" on="1"/>
        <pt x="831" y="664" on="0"/>
        <pt x="827" y="663" on="1"/>
        <pt x="845" y="655" on="0"/>
        <pt x="857" y="636" on="1"/>
        <pt x="862" y="626" on="0"/>
        <pt x="865" y="606" on="0"/>
        <pt x="864" y="595" on="1"/>
        <pt x="886" y="596" on="0"/>
      </contour>
    </TTGlyph>
    <TTGlyph name="glyph00137" xMin="832" yMin="660" xMax="862" yMax="669">
      <contour>
        <pt x="832" y="664" on="1"/>
        <pt x="846" y="660" on="0"/>
        <pt x="860" y="664" on="1"/>
        <pt x="861" y="665" on="0"/>
        <pt x="861" y="665" on="0"/>
        <pt x="861" y="665" on="1"/>
        <pt x="861" y="665" on="0"/>
        <pt x="862" y="665" on="0"/>
        <pt x="862" y="665" on="1"/>
        <pt x="848" y="669" on="0"/>
      </contour>
    </TTGlyph>
    <TTGlyph name="glyph00138" xMin="838" yMin="515" xMax="905" yMax="596">
      <contour>
        <pt x="905" y="594" on="1"/>
        <pt x="887" y="596" on="0"/>
        <pt x="864" y="595" on="1"/>
        <pt x="864" y="587" on="0"/>
        <pt x="860" y="570" on="0"/>
        <pt x="858" y="563" on="1"/>
        <pt x="855" y="551" on="0"/>
        <pt x="844" y="526" on="0"/>
        <pt x="838" y="515" on="1"/>
        <pt x="839" y="515" on="0"/>
        <pt x="840" y="515" on="0"/>
        <pt x="841" y="515" on="1"/>
        <pt x="842" y="515" on="0"/>
        <pt x="845" y="515" on="0"/>
        <pt x="846" y="515" on="1"/>
        <pt x="847" y="515" on="0"/>
        <pt x="850" y="516" on="0"/>
        <pt x="851" y="516" on="1"/>
        <pt x="852" y="516" on="0"/>
        <pt x="853" y="516" on="0"/>
        <pt x="854" y="516" on="1"/>
        <pt x="854" y="516" on="0"/>
        <pt x="855" y="516" on="1"/>
        <pt x="859" y="516" on="0"/>
        <pt x="861" y="516" on="1"/>
        <pt x="862" y="516" on="0"/>
        <pt x="863" y="516" on="1"/>
        <pt x="864" y="516" on="0"/>
        <pt x="866" y="516" on="1"/>
        <pt x="868" y="516" on="0"/>
        <pt x="871" y="516" on="1"/>
        <pt x="874" y="517" on="0"/>
        <pt x="880" y="517" on="1"/>
        <pt x="893" y="541" on="0"/>
        <pt x="899" y="563" on="1"/>
        <pt x="901" y="570" on="0"/>
        <pt x="904" y="586" on="0"/>
      </contour>
    </TTGlyph>
    <TTGlyph name="glyph00139" xMin="788" yMin="425" xMax="879" yMax="517">
      <contour>
        <pt x="833" y="444" on="1"/>
        <pt x="840" y="453" on="0"/>
        <pt x="867" y="492" on="0"/>
        <pt x="879" y="517" on="1"/>
        <pt x="877" y="517" on="0"/>
        <pt x="873" y="517" on="0"/>
        <pt x="871" y="517" on="1"/>
        <pt x="869" y="517" on="0"/>
        <pt x="867" y="516" on="0"/>
        <pt x="866" y="516" on="1"/>
        <pt x="866" y="516" on="0"/>
        <pt x="864" y="516" on="0"/>
        <pt x="863" y="516" on="1"/>
        <pt x="863" y="516" on="0"/>
        <pt x="861" y="516" on="0"/>
        <pt x="861" y="516" on="1"/>
        <pt x="859" y="516" on="0"/>
        <pt x="854" y="516" on="1"/>
        <pt x="854" y="516" on="0"/>
        <pt x="854" y="516" on="0"/>
        <pt x="853" y="516" on="1"/>
        <pt x="852" y="516" on="0"/>
        <pt x="851" y="516" on="1"/>
        <pt x="849" y="516" on="0"/>
        <pt x="846" y="515" on="1"/>
        <pt x="844" y="515" on="0"/>
        <pt x="842" y="515" on="0"/>
        <pt x="841" y="515" on="1"/>
        <pt x="840" y="515" on="0"/>
        <pt x="839" y="515" on="0"/>
        <pt x="838" y="515" on="1"/>
        <pt x="825" y="491" on="0"/>
        <pt x="799" y="452" on="0"/>
        <pt x="792" y="444" on="1"/>
        <pt x="788" y="439" on="0"/>
        <pt x="789" y="433" on="1"/>
        <pt x="789" y="431" on="0"/>
        <pt x="790" y="427" on="0"/>
        <pt x="790" y="425" on="1"/>
        <pt x="810" y="427" on="0"/>
        <pt x="831" y="429" on="1"/>
        <pt x="830" y="430" on="0"/>
        <pt x="830" y="432" on="0"/>
        <pt x="830" y="433" on="1"/>
        <pt x="829" y="439" on="0"/>
      </contour>
    </TTGlyph>
    <TTGlyph name="glyph00140" xMin="650" yMin="92" xMax="844" yMax="429">
      <contour>
        <pt x="843" y="302" on="1"/>
        <pt x="842" y="334" on="0"/>
        <pt x="835" y="398" on="0"/>
        <pt x="831" y="429" on="1"/>
        <pt x="810" y="427" on="0"/>
        <pt x="790" y="425" on="1"/>
        <pt x="794" y="394" on="0"/>
        <pt x="801" y="333" on="0"/>
        <pt x="802" y="302" on="1"/>
        <pt x="803" y="273" on="0"/>
        <pt x="797" y="213" on="0"/>
        <pt x="784" y="186" on="1"/>
        <pt x="773" y="161" on="0"/>
        <pt x="733" y="114" on="0"/>
        <pt x="707" y="106" on="1"/>
        <pt x="675" y="97" on="0"/>
        <pt x="650" y="94" on="1"/>
        <pt x="671" y="92" on="0"/>
        <pt x="715" y="96" on="0"/>
        <pt x="748" y="106" on="1"/>
        <pt x="774" y="114" on="0"/>
        <pt x="814" y="161" on="0"/>
        <pt x="825" y="186" on="1"/>
        <pt x="838" y="213" on="0"/>
        <pt x="844" y="273" on="0"/>
      </contour>
    </TTGlyph>
    <TTGlyph name="glyph00141" xMin="377" yMin="518" xMax="689" yMax="552">
      <component glyphName="glyph00142" x="0" y="0" flags="0x4"/>
      <component glyphName="glyph00142" x="278" y="0" flags="0x4"/>
    </TTGlyph>
    <TTGlyph name="glyph00142" xMin="377" yMin="518" xMax="411" yMax="552">
      <contour>
        <pt x="411" y="535" on="1"/>
        <pt x="411" y="542" on="0"/>
        <pt x="401" y="552" on="0"/>
        <pt x="394" y="552" on="1"/>
        <pt x="387" y="552" on="0"/>
        <pt x="377" y="542" on="0"/>
        <pt x="377" y="535" on="1"/>
        <pt x="377" y="528" on="0"/>
        <pt x="387" y="518" on="0"/>
        <pt x="394" y="518" on="1"/>
        <pt x="401" y="518" on="0"/>
        <pt x="411" y="528" on="0"/>
      </contour>
    </TTGlyph>
    <TTGlyph name="glyph00143" xMin="124" yMin="83" xMax="835" yMax="643">
      <contour>
        <pt x="308" y="83" on="1"/>
        <pt x="322" y="83" on="0"/>
        <pt x="335" y="86" on="1"/>
        <pt x="356" y="90" on="0"/>
        <pt x="436" y="99" on="0"/>
        <pt x="498" y="99" on="1"/>
        <pt x="541" y="99" on="0"/>
        <pt x="598" y="93" on="0"/>
        <pt x="619" y="91" on="1"/>
        <pt x="650" y="86" on="0"/>
        <pt x="704" y="86" on="0"/>
        <pt x="750" y="99" on="1"/>
        <pt x="773" y="106" on="0"/>
        <pt x="807" y="140" on="0"/>
        <pt x="828" y="174" on="0"/>
        <pt x="832" y="183" on="1"/>
        <pt x="835" y="190" on="0"/>
        <pt x="829" y="193" on="1"/>
        <pt x="822" y="196" on="0"/>
        <pt x="818" y="189" on="1"/>
        <pt x="808" y="166" on="0"/>
        <pt x="769" y="121" on="0"/>
        <pt x="745" y="114" on="1"/>
        <pt x="702" y="101" on="0"/>
        <pt x="652" y="102" on="0"/>
        <pt x="621" y="106" on="1"/>
        <pt x="599" y="109" on="0"/>
        <pt x="542" y="114" on="0"/>
        <pt x="498" y="114" on="1"/>
        <pt x="435" y="114" on="0"/>
        <pt x="354" y="105" on="0"/>
        <pt x="331" y="101" on="1"/>
        <pt x="287" y="91" on="0"/>
        <pt x="210" y="138" on="0"/>
        <pt x="198" y="181" on="1"/>
        <pt x="188" y="219" on="0"/>
        <pt x="192" y="299" on="0"/>
        <pt x="206" y="368" on="0"/>
        <pt x="212" y="386" on="1"/>
        <pt x="216" y="401" on="0"/>
        <pt x="208" y="415" on="1"/>
        <pt x="161" y="493" on="0"/>
        <pt x="148" y="548" on="1"/>
        <pt x="141" y="579" on="0"/>
        <pt x="165" y="600" on="1"/>
        <pt x="189" y="621" on="0"/>
        <pt x="219" y="610" on="1"/>
        <pt x="219" y="610" on="0"/>
        <pt x="220" y="610" on="1"/>
        <pt x="221" y="609" on="0"/>
        <pt x="222" y="609" on="1"/>
        <pt x="235" y="605" on="0"/>
        <pt x="260" y="618" on="0"/>
        <pt x="265" y="631" on="1"/>
        <pt x="267" y="638" on="0"/>
        <pt x="260" y="641" on="1"/>
        <pt x="253" y="643" on="0"/>
        <pt x="250" y="636" on="1"/>
        <pt x="248" y="628" on="0"/>
        <pt x="234" y="621" on="0"/>
        <pt x="226" y="624" on="1"/>
        <pt x="226" y="624" on="1"/>
        <pt x="226" y="624" on="0"/>
        <pt x="225" y="624" on="0"/>
        <pt x="225" y="624" on="1"/>
        <pt x="225" y="624" on="1"/>
        <pt x="186" y="639" on="0"/>
        <pt x="155" y="611" on="1"/>
        <pt x="124" y="584" on="0"/>
        <pt x="134" y="544" on="1"/>
        <pt x="147" y="487" on="0"/>
        <pt x="195" y="407" on="1"/>
        <pt x="200" y="399" on="0"/>
        <pt x="197" y="391" on="1"/>
        <pt x="191" y="372" on="0"/>
        <pt x="176" y="301" on="0"/>
        <pt x="172" y="216" on="0"/>
        <pt x="183" y="177" on="1"/>
        <pt x="195" y="135" on="0"/>
        <pt x="265" y="83" on="0"/>
      </contour>
    </TTGlyph>
    <TTGlyph name="glyph00144" xMin="303" yMin="295" xMax="915" yMax="965">
      <contour>
        <pt x="843" y="295" on="1"/>
        <pt x="843" y="295" on="0"/>
        <pt x="843" y="295" on="1"/>
        <pt x="851" y="295" on="0"/>
        <pt x="851" y="303" on="1"/>
        <pt x="850" y="333" on="0"/>
        <pt x="843" y="393" on="0"/>
        <pt x="839" y="423" on="1"/>
        <pt x="838" y="434" on="1"/>
        <pt x="837" y="437" on="0"/>
        <pt x="839" y="440" on="1"/>
        <pt x="845" y="448" on="0"/>
        <pt x="872" y="486" on="0"/>
        <pt x="899" y="536" on="0"/>
        <pt x="906" y="561" on="1"/>
        <pt x="912" y="580" on="0"/>
        <pt x="915" y="622" on="0"/>
        <pt x="904" y="640" on="1"/>
        <pt x="892" y="661" on="0"/>
        <pt x="852" y="678" on="0"/>
        <pt x="830" y="672" on="1"/>
        <pt x="812" y="667" on="0"/>
        <pt x="796" y="657" on="1"/>
        <pt x="795" y="656" on="0"/>
        <pt x="794" y="657" on="1"/>
        <pt x="792" y="657" on="0"/>
        <pt x="792" y="658" on="1"/>
        <pt x="732" y="855" on="0"/>
        <pt x="628" y="885" on="1"/>
        <pt x="612" y="890" on="0"/>
        <pt x="587" y="912" on="0"/>
        <pt x="575" y="923" on="1"/>
        <pt x="559" y="940" on="0"/>
        <pt x="523" y="965" on="0"/>
        <pt x="498" y="956" on="1"/>
        <pt x="482" y="950" on="0"/>
        <pt x="466" y="936" on="1"/>
        <pt x="426" y="901" on="0"/>
        <pt x="383" y="871" on="1"/>
        <pt x="378" y="868" on="0"/>
        <pt x="369" y="862" on="0"/>
        <pt x="365" y="859" on="1"/>
        <pt x="348" y="848" on="0"/>
        <pt x="317" y="824" on="0"/>
        <pt x="307" y="804" on="1"/>
        <pt x="303" y="797" on="0"/>
        <pt x="310" y="793" on="1"/>
        <pt x="317" y="790" on="0"/>
        <pt x="321" y="797" on="1"/>
        <pt x="329" y="814" on="0"/>
        <pt x="357" y="836" on="0"/>
        <pt x="373" y="846" on="1"/>
        <pt x="378" y="849" on="0"/>
        <pt x="387" y="855" on="0"/>
        <pt x="391" y="858" on="1"/>
        <pt x="436" y="889" on="0"/>
        <pt x="476" y="924" on="1"/>
        <pt x="490" y="937" on="0"/>
        <pt x="503" y="941" on="1"/>
        <pt x="520" y="947" on="0"/>
        <pt x="547" y="930" on="0"/>
        <pt x="564" y="913" on="1"/>
        <pt x="576" y="900" on="0"/>
        <pt x="605" y="876" on="0"/>
        <pt x="624" y="870" on="1"/>
        <pt x="675" y="855" on="0"/>
        <pt x="716" y="794" on="1"/>
        <pt x="751" y="740" on="0"/>
        <pt x="777" y="654" on="1"/>
        <pt x="780" y="645" on="0"/>
        <pt x="788" y="642" on="1"/>
        <pt x="796" y="639" on="0"/>
        <pt x="803" y="644" on="1"/>
        <pt x="819" y="653" on="0"/>
        <pt x="835" y="657" on="1"/>
        <pt x="870" y="668" on="0"/>
        <pt x="891" y="632" on="1"/>
        <pt x="900" y="618" on="0"/>
        <pt x="896" y="583" on="0"/>
        <pt x="891" y="565" on="1"/>
        <pt x="885" y="541" on="0"/>
        <pt x="859" y="494" on="0"/>
        <pt x="833" y="457" on="0"/>
        <pt x="827" y="449" on="1"/>
        <pt x="821" y="442" on="0"/>
        <pt x="823" y="432" on="1"/>
        <pt x="824" y="421" on="1"/>
        <pt x="828" y="392" on="0"/>
        <pt x="834" y="332" on="0"/>
        <pt x="835" y="302" on="1"/>
        <pt x="835" y="295" on="0"/>
      </contour>
    </TTGlyph>
    <TTGlyph name="glyph00145" xMin="239" yMin="169" xMax="280" yMax="292">
      <contour>
        <pt x="269" y="169" on="1"/>
        <pt x="272" y="169" on="0"/>
        <pt x="275" y="172" on="1"/>
        <pt x="280" y="177" on="0"/>
        <pt x="274" y="183" on="1"/>
        <pt x="274" y="183" on="0"/>
        <pt x="266" y="202" on="0"/>
        <pt x="261" y="236" on="1"/>
        <pt x="258" y="255" on="0"/>
        <pt x="255" y="285" on="0"/>
        <pt x="255" y="285" on="1"/>
        <pt x="254" y="292" on="0"/>
        <pt x="246" y="292" on="1"/>
        <pt x="239" y="291" on="0"/>
        <pt x="240" y="283" on="1"/>
        <pt x="240" y="283" on="0"/>
        <pt x="243" y="253" on="0"/>
        <pt x="246" y="234" on="1"/>
        <pt x="251" y="199" on="0"/>
        <pt x="260" y="175" on="0"/>
        <pt x="264" y="172" on="1"/>
        <pt x="266" y="169" on="0"/>
      </contour>
    </TTGlyph>
    <TTGlyph name="glyph00146" xMin="237" yMin="295" xMax="256" yMax="314">
      <contour>
        <pt x="254" y="306" on="1"/>
        <pt x="253" y="314" on="0"/>
        <pt x="245" y="312" on="1"/>
        <pt x="237" y="311" on="0"/>
        <pt x="239" y="303" on="1"/>
        <pt x="240" y="295" on="0"/>
        <pt x="248" y="297" on="1"/>
        <pt x="256" y="298" on="0"/>
      </contour>
    </TTGlyph>
    <TTGlyph name="glyph00147" xMin="652" yMin="801" xMax="674" yMax="823">
      <contour>
        <pt x="670" y="816" on="1"/>
        <pt x="666" y="823" on="0"/>
        <pt x="659" y="819" on="1"/>
        <pt x="652" y="815" on="0"/>
        <pt x="656" y="808" on="1"/>
        <pt x="660" y="801" on="0"/>
        <pt x="667" y="805" on="1"/>
        <pt x="674" y="809" on="0"/>
      </contour>
    </TTGlyph>
    <TTGlyph name="glyph00148" xMin="566" yMin="830" xMax="646" yMax="865">
      <contour>
        <pt x="646" y="830" on="1"/>
        <pt x="631" y="847" on="0"/>
        <pt x="593" y="862" on="0"/>
        <pt x="566" y="865" on="0"/>
        <pt x="566" y="865" on="1"/>
      </contour>
    </TTGlyph>
    <TTGlyph name="glyph00149" xMin="558" yMin="822" xMax="657" yMax="873">
      <contour>
        <pt x="646" y="822" on="1"/>
        <pt x="649" y="822" on="0"/>
        <pt x="652" y="824" on="1"/>
        <pt x="657" y="830" on="0"/>
        <pt x="652" y="835" on="1"/>
        <pt x="635" y="854" on="0"/>
        <pt x="596" y="869" on="0"/>
        <pt x="567" y="873" on="0"/>
        <pt x="566" y="873" on="1"/>
        <pt x="566" y="873" on="1"/>
        <pt x="558" y="873" on="0"/>
        <pt x="558" y="865" on="1"/>
        <pt x="558" y="857" on="0"/>
        <pt x="566" y="857" on="1"/>
        <pt x="566" y="857" on="0"/>
        <pt x="591" y="854" on="0"/>
        <pt x="626" y="841" on="0"/>
        <pt x="641" y="825" on="1"/>
        <pt x="643" y="822" on="0"/>
      </contour>
    </TTGlyph>
    <TTGlyph name="glyph00150" xMin="259" yMin="654" xMax="314" yMax="786">
      <contour>
        <pt x="270" y="654" on="1"/>
        <pt x="273" y="654" on="0"/>
        <pt x="275" y="656" on="1"/>
        <pt x="277" y="658" on="0"/>
        <pt x="286" y="677" on="0"/>
        <pt x="298" y="720" on="1"/>
        <pt x="303" y="741" on="0"/>
        <pt x="312" y="774" on="0"/>
        <pt x="312" y="774" on="1"/>
        <pt x="314" y="782" on="0"/>
        <pt x="306" y="784" on="1"/>
        <pt x="299" y="786" on="0"/>
        <pt x="297" y="778" on="1"/>
        <pt x="291" y="753" on="0"/>
        <pt x="277" y="704" on="0"/>
        <pt x="266" y="670" on="0"/>
        <pt x="264" y="667" on="1"/>
        <pt x="259" y="661" on="0"/>
        <pt x="264" y="656" on="1"/>
        <pt x="267" y="654" on="0"/>
      </contour>
      <contour>
        <pt x="264" y="667" on="1"/>
        <pt x="264" y="667" on="0"/>
        <pt x="264" y="667" on="0"/>
      </contour>
    </TTGlyph>
    <TTGlyph name="glyph00151" xMin="823" yMin="198" xMax="851" yMax="291">
      <contour>
        <pt x="833" y="198" on="1"/>
        <pt x="839" y="198" on="0"/>
        <pt x="840" y="203" on="1"/>
        <pt x="846" y="216" on="0"/>
        <pt x="850" y="253" on="0"/>
        <pt x="851" y="282" on="0"/>
        <pt x="851" y="283" on="1"/>
        <pt x="851" y="291" on="0"/>
        <pt x="843" y="291" on="1"/>
        <pt x="835" y="291" on="0"/>
        <pt x="835" y="283" on="1"/>
        <pt x="835" y="283" on="0"/>
        <pt x="835" y="255" on="0"/>
        <pt x="831" y="220" on="0"/>
        <pt x="826" y="209" on="1"/>
        <pt x="823" y="202" on="0"/>
        <pt x="830" y="199" on="1"/>
        <pt x="832" y="198" on="0"/>
      </contour>
    </TTGlyph>
    <TTGlyph name="glyph00152" xMin="497" yMin="548" xMax="564" yMax="572">
      <contour>
        <pt x="530" y="548" on="1"/>
        <pt x="533" y="548" on="0"/>
        <pt x="534" y="548" on="1"/>
        <pt x="547" y="549" on="0"/>
        <pt x="557" y="555" on="1"/>
        <pt x="564" y="559" on="0"/>
        <pt x="560" y="565" on="1"/>
        <pt x="556" y="572" on="0"/>
        <pt x="549" y="568" on="1"/>
        <pt x="542" y="564" on="0"/>
        <pt x="533" y="563" on="1"/>
        <pt x="527" y="563" on="0"/>
        <pt x="521" y="564" on="1"/>
        <pt x="521" y="564" on="1"/>
        <pt x="514" y="565" on="0"/>
        <pt x="513" y="566" on="1"/>
        <pt x="508" y="572" on="0"/>
        <pt x="503" y="566" on="1"/>
        <pt x="497" y="561" on="0"/>
        <pt x="503" y="555" on="1"/>
        <pt x="506" y="552" on="0"/>
        <pt x="515" y="549" on="0"/>
        <pt x="518" y="549" on="1"/>
        <pt x="518" y="549" on="1"/>
        <pt x="524" y="548" on="0"/>
      </contour>
    </TTGlyph>
    <TTGlyph name="glyph00153" xMin="443" yMin="597" xMax="613" yMax="636">
      <component glyphName="glyph00154" x="0" y="0" flags="0x4"/>
      <component glyphName="glyph00154" x="131" y="0" flags="0x4"/>
    </TTGlyph>
    <TTGlyph name="glyph00154" xMin="443" yMin="597" xMax="482" yMax="636">
      <contour>
        <pt x="482" y="617" on="1"/>
        <pt x="482" y="625" on="0"/>
        <pt x="471" y="636" on="0"/>
        <pt x="463" y="636" on="1"/>
        <pt x="455" y="636" on="0"/>
        <pt x="443" y="625" on="0"/>
        <pt x="443" y="617" on="1"/>
        <pt x="443" y="609" on="0"/>
        <pt x="455" y="597" on="0"/>
        <pt x="463" y="597" on="1"/>
        <pt x="471" y="597" on="0"/>
        <pt x="482" y="609" on="0"/>
      </contour>
    </TTGlyph>
    <TTGlyph name="k" xMin="0" yMin="0" xMax="1024" yMax="1024">
      <contour>
        <pt x="1024" y="1024" on="1"/>
        <pt x="0" y="0" on="1"/>
      </contour>
    </TTGlyph>
</ttFont>
